<?xml version="1.0" standalone="no"?>
<!DOCTYPE svg PUBLIC "-//W3C//DTD SVG 20010904//EN"
 "http://www.w3.org/TR/2001/REC-SVG-20010904/DTD/svg10.dtd">
<svg version="1.0" xmlns="http://www.w3.org/2000/svg"
 width="700.000000pt" height="700.000000pt" viewBox="0 0 700.000000 700.000000"
 preserveAspectRatio="xMidYMid meet">
<metadata>
Created by potrace 1.14, written by Peter Selinger 2001-2017
</metadata>
<g transform="translate(0.000000,700.000000) scale(0.100000,-0.100000)"
fill="#000000" stroke="none">
<path d="M860 5835 c0 -6 112 -293 248 -636 137 -343 335 -840 440 -1104 105
-264 393 -988 640 -1610 247 -621 473 -1190 502 -1263 l52 -132 450 2 449 3
121 305 c66 168 126 319 133 335 8 17 27 66 44 110 18 44 36 89 41 100 5 11
21 52 35 90 15 39 33 84 40 100 7 17 72 181 145 365 73 184 138 349 145 365 7
17 28 68 46 115 18 47 36 89 41 94 4 6 8 16 8 24 0 7 8 32 19 55 10 23 60 148
111 277 51 129 98 249 105 265 7 17 38 93 68 170 100 254 547 1380 557 1400 5
11 30 74 55 140 25 66 50 129 55 140 32 69 117 295 112 296 -23 4 -795 3 -801
-1 -5 -3 -25 -50 -45 -105 -21 -55 -46 -120 -56 -145 -10 -25 -73 -189 -140
-365 -67 -176 -125 -329 -130 -340 -5 -11 -68 -175 -140 -365 -72 -190 -135
-354 -140 -365 -5 -11 -66 -168 -135 -350 -70 -181 -137 -357 -150 -390 -23
-58 -58 -150 -280 -730 -157 -406 -222 -576 -268 -698 -22 -59 -44 -104 -48
-100 -7 7 -38 85 -96 243 -13 36 -27 74 -32 85 -5 11 -23 56 -40 100 -16 44
-65 170 -106 280 -108 281 -466 1220 -535 1400 -31 83 -151 395 -265 695 -114
300 -209 552 -213 560 -3 8 -55 146 -117 305 l-111 290 -407 1 c-313 1 -407
-1 -407 -11z m4457 -137 c-3 -7 -50 -128 -106 -268 -56 -140 -105 -264 -110
-275 -5 -11 -100 -249 -211 -530 -328 -826 -475 -1198 -705 -1775 -119 -300
-236 -594 -260 -655 -53 -138 -28 -75 -218 -550 l-165 -410 -60 -3 c-71 -3
-64 -12 -116 138 -21 58 -41 114 -47 125 -5 11 -20 53 -34 93 -22 67 -23 76
-10 105 8 18 30 73 49 122 43 115 105 275 149 390 19 50 112 293 207 540 95
248 187 488 205 535 18 47 65 171 105 275 40 105 92 240 116 302 24 62 44 115
44 119 0 3 6 20 14 37 8 18 96 246 196 507 99 261 184 484 189 495 5 11 37 94
71 185 34 91 68 179 75 195 7 17 37 94 66 173 l53 142 254 0 c199 0 253 -3
249 -12z"/>
<path d="M4975 2068 c-261 -53 -402 -348 -282 -587 124 -247 463 -302 658
-106 48 48 104 147 114 200 55 302 -195 554 -490 493z"/>
</g>
</svg>
